<?xml version="1.0" encoding="UTF-8" standalone="no"?>
<!-- Generator: Adobe Illustrator 24.2.1, SVG Export Plug-In . SVG Version: 6.00 Build 0)  -->

<svg
   xmlns:sketch="http://www.bohemiancoding.com/sketch/ns"
   xmlns:dc="http://purl.org/dc/elements/1.1/"
   xmlns:cc="http://creativecommons.org/ns#"
   xmlns:rdf="http://www.w3.org/1999/02/22-rdf-syntax-ns#"
   xmlns:svg="http://www.w3.org/2000/svg"
   xmlns="http://www.w3.org/2000/svg"
   xmlns:sodipodi="http://sodipodi.sourceforge.net/DTD/sodipodi-0.dtd"
   xmlns:inkscape="http://www.inkscape.org/namespaces/inkscape"
   version="1.1"
   x="0px"
   y="0px"
   viewBox="0 0 338.96616 313.44601"
   xml:space="preserve"
   id="svg28"
   sodipodi:docname="gitlab.svg"
   width="338.96616"
   height="313.44601"
   inkscape:version="0.92.5 (2060ec1f9f, 2020-04-08)"><metadata
   id="metadata34"><rdf:RDF><cc:Work
       rdf:about=""><dc:format>image/svg+xml</dc:format><dc:type
         rdf:resource="http://purl.org/dc/dcmitype/StillImage" /><dc:title></dc:title></cc:Work></rdf:RDF></metadata><defs
   id="defs32">
	
</defs><sodipodi:namedview
   pagecolor="#ffffff"
   bordercolor="#666666"
   borderopacity="1"
   objecttolerance="10"
   gridtolerance="10"
   guidetolerance="10"
   inkscape:pageopacity="0"
   inkscape:pageshadow="2"
   inkscape:window-width="1920"
   inkscape:window-height="1135"
   id="namedview30"
   showgrid="false"
   fit-margin-top="0"
   fit-margin-left="0"
   fit-margin-right="0"
   fit-margin-bottom="0"
   inkscape:zoom="1.1941123"
   inkscape:cx="158.04755"
   inkscape:cy="206.33292"
   inkscape:window-x="1280"
   inkscape:window-y="0"
   inkscape:window-maximized="1"
   inkscape:current-layer="svg28" />
<style
   type="text/css"
   id="style2">
	.st0{fill:#FAFAFA;}
	.st1{fill:#F0F0F0;}
	.st2{fill:#FFFFFF;}
	.st3{fill:#E24329;}
	.st4{fill:#FCA326;}
	.st5{fill:#FC6D26;}
	.st6{fill:#8C929D;}
	.st7{fill:#2E2E2E;}
	.st8{fill:none;stroke:#FCA326;stroke-width:16;stroke-linecap:round;stroke-linejoin:round;stroke-miterlimit:10;}
	.st9{fill:none;stroke:#FC6D26;stroke-width:16;stroke-linecap:round;stroke-linejoin:round;stroke-miterlimit:10;}
	.st10{fill:none;stroke:#E24329;stroke-width:16;stroke-linecap:round;stroke-linejoin:round;stroke-miterlimit:10;}
	.st11{fill:none;stroke:#F0F0F0;stroke-miterlimit:10;}
	.st12{fill:#231F20;}
	.st13{fill:none;stroke:#231F20;stroke-width:16;stroke-linecap:round;stroke-linejoin:round;stroke-miterlimit:10;}
	.st14{display:none;}
	.st15{display:inline;opacity:0.1;fill:#E828E3;}
	.st16{display:inline;}
	.st17{opacity:0.1;fill:#E828E3;}
	.st18{font-family:'SourceSansPro-Semibold';}
	.st19{font-size:24px;}
	.st20{display:inline;fill:#DB3B21;}
	.st21{display:inline;fill:#FC6D26;}
	.st22{display:inline;fill:#2E2E2E;}
	.st23{display:inline;fill:#6E49CB;}
	.st24{display:inline;fill:#380D75;}
	.st25{display:inline;fill:#FCA121;}
	.st26{opacity:0.6;fill:none;stroke:#231F20;stroke-width:2;stroke-miterlimit:10;stroke-dasharray:12,6;}
	.st27{fill:none;stroke:#444444;stroke-width:1.5339;stroke-miterlimit:10;}
</style>
<path
   style="fill:#ffffff;fill-opacity:1"
   inkscape:connector-curvature="0"
   id="path4"
   d="m 337.96405,175.579 -18.049,-55.587 c 0.008,0.025 0.011,0.051 0.019,0.076 -0.009,-0.029 -0.014,-0.058 -0.022,-0.087 -0.001,-0.002 -0.001,-0.003 -0.001,-0.005 0,-0.001 0,-0.002 0,-0.002 l -35.83,-110.31 c -1.96,-5.811 -7.353,-9.711 -13.536,-9.663 -6.201,0.032 -11.446,3.857 -13.364,9.748 l -34.01,104.705 h -107.313 L 81.78405,9.742 c -1.916,-5.886 -7.162,-9.71 -13.362,-9.742 -0.025,0 -0.049,0 -0.075,0 -6.105,0 -11.509,3.876 -13.49,9.752 l -35.732,110.211 -0.005,0.014 c 0,10e-4 0,0.002 0,0.003 -0.009,0.028 -0.013,0.056 -0.022,0.084 0.008,-0.025 0.011,-0.051 0.019,-0.076 L 1.0020501,175.579 c -2.725,8.392 0.232,17.512 7.36,22.697 L 164.77805,311.924 c 0.023,0.017 0.049,0.027 0.072,0.044 0.067,0.048 0.132,0.097 0.2,0.142 -0.064,-0.043 -0.124,-0.09 -0.187,-0.134 0,0 0,-10e-4 -10e-4,-10e-4 0.01,0.008 0.022,0.013 0.033,0.02 0.009,0.006 0.018,0.01 0.027,0.016 10e-4,10e-4 0.002,0.002 0.004,0.003 0.242,0.168 0.493,0.322 0.753,0.463 0.036,0.02 0.068,0.045 0.104,0.064 0.001,0 0.001,10e-4 0.002,10e-4 0.022,0.011 0.042,0.025 0.064,0.036 0.017,0.008 0.035,0.013 0.051,0.021 0.012,0.006 0.025,0.01 0.037,0.015 0.029,0.014 0.061,0.023 0.09,0.038 0.136,0.065 0.279,0.118 0.419,0.175 0.131,0.054 0.258,0.117 0.392,0.164 0.006,0.002 0.011,0.005 0.017,0.007 0.022,0.008 0.042,0.019 0.065,0.027 0.028,0.01 0.055,0.021 0.083,0.03 0.011,0.003 0.022,0.005 0.033,0.008 0.035,0.011 0.073,0.016 0.108,0.026 0.013,0.004 0.028,0.006 0.042,0.01 0.188,0.057 0.383,0.098 0.577,0.141 0.076,0.017 0.149,0.041 0.226,0.055 0.011,0.002 0.021,0.006 0.033,0.008 0.025,0.005 0.048,0.014 0.074,0.018 0.041,0.007 0.081,0.02 0.123,0.026 0.033,0.005 0.067,0.003 0.1,0.008 0.006,10e-4 0.011,0 0.017,10e-4 0.002,0 0.003,0 0.005,0 0.369,0.053 0.743,0.09 1.124,0.09 0.002,0 0.004,0 0.007,0 v 0 c 0.001,0 0.002,0 0.002,0 0,0 0.001,0 0.001,0 10e-4,0 0.002,0 0.003,0 0.382,0 0.756,-0.037 1.126,-0.09 0.001,0 0.003,0 0.004,0 0.006,-10e-4 0.012,0 0.018,-10e-4 0.033,-0.005 0.068,-0.003 0.101,-0.008 0.042,-0.007 0.082,-0.019 0.124,-0.026 0.025,-0.004 0.048,-0.013 0.073,-0.018 0.011,-0.002 0.021,-0.006 0.032,-0.008 0.078,-0.015 0.153,-0.039 0.231,-0.056 0.191,-0.042 0.383,-0.083 0.57,-0.139 0.013,-0.004 0.026,-0.005 0.039,-0.009 0.037,-0.011 0.075,-0.016 0.112,-0.027 0.011,-0.004 0.023,-0.005 0.034,-0.008 0.029,-0.009 0.057,-0.021 0.085,-0.031 0.022,-0.008 0.042,-0.019 0.064,-0.027 0.006,-0.002 0.011,-0.005 0.017,-0.007 0.142,-0.05 0.276,-0.116 0.415,-0.173 0.129,-0.054 0.261,-0.102 0.387,-0.162 0.031,-0.015 0.064,-0.024 0.094,-0.039 0.012,-0.006 0.026,-0.01 0.038,-0.016 0.017,-0.008 0.035,-0.013 0.052,-0.022 0.023,-0.012 0.045,-0.026 0.067,-0.037 0,0 0.001,0 0.001,-10e-4 0.037,-0.019 0.07,-0.046 0.107,-0.066 0.258,-0.14 0.508,-0.293 0.749,-0.46 0.019,-0.013 0.041,-0.023 0.061,-0.037 0.005,-0.004 0.011,-0.006 0.016,-0.01 0.023,-0.017 0.05,-0.028 0.073,-0.045 l 156.44,-113.65 c 7.124,-5.182 10.081,-14.302 7.356,-22.694 z m -67.32,-155.581 30.68,94.456 h -61.36 z m 25.307,110.428 -12.519,16.041 -92.334,118.307 43.677,-134.348 z m -134.073,177.505 c 0,0 0,0 0,0 0.008,0.024 0.021,0.046 0.029,0.071 -0.008,-0.025 -0.021,-0.047 -0.029,-0.071 z m -14.008,-43.149 -104.796,-134.356 v 0 h 61.18 z m -79.545,-244.785 30.737,94.457 h -61.36 z m -50.571,165.36 c -1.516,-1.103 -2.144,-3.05 -1.563,-4.838 l 13.466,-41.325 98.67,126.502 z m 146.749,126.356 c -0.031,-0.025 -0.061,-0.052 -0.091,-0.078 -0.006,-0.005 -0.012,-0.012 -0.019,-0.017 -0.06,-0.05 -0.119,-0.101 -0.177,-0.153 -0.114,-0.099 -0.226,-0.2 -0.333,-0.306 0.009,0.008 0.019,0.015 0.028,0.023 0.012,0.011 0.025,0.02 0.037,0.031 0.229,0.219 0.47,0.425 0.722,0.615 0.003,0.002 0.005,0.005 0.008,0.007 0.012,0.009 0.022,0.02 0.034,0.03 -0.069,-0.05 -0.141,-0.098 -0.209,-0.152 z m 4.975,-32.097 -25.665,-79.059 -22.766,-70.131 h 96.933 z m 5.253,31.849 c -0.06,0.052 -0.118,0.104 -0.179,0.154 -0.007,0.006 -0.014,0.013 -0.021,0.019 -0.031,0.025 -0.06,0.052 -0.09,0.077 -0.066,0.053 -0.138,0.101 -0.207,0.152 0.012,-0.009 0.022,-0.021 0.035,-0.029 0.002,-0.002 0.004,-0.004 0.006,-0.006 0.252,-0.19 0.492,-0.394 0.719,-0.613 0.009,-0.009 0.02,-0.016 0.029,-0.024 0.012,-0.011 0.025,-0.02 0.036,-0.031 -0.106,0.103 -0.217,0.203 -0.328,0.301 z m 146.485,-126.111 -110.557,80.317 98.703,-126.467 13.412,41.307 c 0.582,1.796 -0.045,3.743 -1.558,4.843 z"
   class="st12" />
<g
   id="spacing_guides"
   class="st14"
   style="display:none"
   transform="translate(-123.54995,-122.776)">
	<path
   id="path40_116_"
   sketch:type="MSShapeGroup"
   class="st15"
   d="m 0,0.5 v 124 H 586 V 0.5 Z"
   inkscape:connector-curvature="0"
   style="display:inline;opacity:0.1;fill:#e828e3" />
	<path
   id="path40_115_"
   sketch:type="MSShapeGroup"
   class="st15"
   d="m 0,435.5 v 124 h 586 v -124 z"
   inkscape:connector-curvature="0"
   style="display:inline;opacity:0.1;fill:#e828e3" />
	<path
   id="path40_114_"
   sketch:type="MSShapeGroup"
   class="st15"
   d="m 462.2,560 h 124 V 0 h -124 z"
   inkscape:connector-curvature="0"
   style="display:inline;opacity:0.1;fill:#e828e3" />
	<g
   class="st16"
   id="g12"
   style="display:inline">
		<text
   transform="translate(511.2881,283.332)"
   class="st18 st19"
   id="text10"
   style="font-size:24px;font-family:SourceSansPro-Semibold">1x</text>


	</g>
	<g
   class="st16"
   id="g16"
   style="display:inline">
		<text
   transform="translate(281.2881,500.9979)"
   class="st18 st19"
   id="text14"
   style="font-size:24px;font-family:SourceSansPro-Semibold">1x</text>


	</g>
	<g
   class="st16"
   id="g20"
   style="display:inline">
		<text
   transform="translate(281.2881,65.9981)"
   class="st18 st19"
   id="text18"
   style="font-size:24px;font-family:SourceSansPro-Semibold">1x</text>


	</g>
	<path
   id="path40_109_"
   sketch:type="MSShapeGroup"
   class="st15"
   d="M 0,560 H 124 V 0 H 0 Z"
   inkscape:connector-curvature="0"
   style="display:inline;opacity:0.1;fill:#e828e3" />
	<g
   class="st16"
   id="g25"
   style="display:inline">
		<text
   transform="translate(51.2881,283.332)"
   class="st18 st19"
   id="text23"
   style="font-size:24px;font-family:SourceSansPro-Semibold">1x</text>


	</g>
</g>
</svg>